HIERARCHY
ROOT hip
{
	OFFSET 0.000000 0.000000 0.000000 
	CHANNELS 6 Xposition Yposition Zposition Xrotation Zrotation Yrotation
	JOINT abdomen
	{
		OFFSET 0.000000 3.402643 0.000000 
		CHANNELS 3 Xrotation Zrotation Yrotation
		JOINT chest
		{
			OFFSET 0.000000 8.438565 -0.680529 
			CHANNELS 3 Xrotation Zrotation Yrotation
			JOINT neck
			{
				OFFSET 0.000000 10.207942 -0.272212 
				CHANNELS 3 Xrotation Zrotation Yrotation
				JOINT head
				{
					OFFSET 0.000000 3.130431 0.000000 
					CHANNELS 3 Xrotation Zrotation Yrotation
					End Site
					{
						OFFSET 0.000000 3.130435 0.000000 
					}
				}
			}
			JOINT lCollar
			{
				OFFSET 3.470700 6.669187 -0.816635 
				CHANNELS 3 Yrotation Zrotation Xrotation
				JOINT lShldr
				{
					OFFSET 3.198488 0.000000 0.000000 
					CHANNELS 3 Zrotation Yrotation Xrotation
					JOINT lForeArm
					{
						OFFSET 10.139888 0.000000 0.000000 
						CHANNELS 3 Yrotation Zrotation Xrotation
						JOINT lHand
						{
							OFFSET 8.370511 0.000000 0.000000 
							CHANNELS 3 Zrotation Yrotation Xrotation
							End Site
							{
								OFFSET 4.083176 0.000000 0.000000 
							}
						}
					}
				}
			}
			JOINT rCollar
			{
				OFFSET -3.470700 6.669187 -0.816635 
				CHANNELS 3 Yrotation Zrotation Xrotation
				JOINT rShldr
				{
					OFFSET -3.198488 0.000000 0.000000 
					CHANNELS 3 Zrotation Yrotation Xrotation
					JOINT rForeArm
					{
						OFFSET -10.139888 0.000000 0.000000 
						CHANNELS 3 Yrotation Zrotation Xrotation
						JOINT rHand
						{
							OFFSET -8.370511 0.000000 0.000000 
							CHANNELS 3 Zrotation Yrotation Xrotation
							End Site
							{
								OFFSET -4.083176 0.000000 0.000000 
							}
						}
					}
				}
			}
		}
	}
	JOINT lThigh
	{
		OFFSET 5.308129 -1.633274 1.361059 
		CHANNELS 3 Xrotation Zrotation Yrotation
		JOINT lShin
		{
			OFFSET -2.041588 -20.007561 0.000000 
			CHANNELS 3 Xrotation Zrotation Yrotation
			JOINT lFoot
			{
				OFFSET 0.000000 -19.190928 -1.224953 
				CHANNELS 3 Xrotation Yrotation Zrotation
				End Site
				{
					OFFSET 0.000000 -2.449906 4.627600 
				}
			}
		}
	}
	JOINT rThigh
	{
		OFFSET -5.308129 -1.633274 1.361059 
		CHANNELS 3 Xrotation Zrotation Yrotation
		JOINT rShin
		{
			OFFSET 2.041588 -20.007561 0.000000 
			CHANNELS 3 Xrotation Zrotation Yrotation
			JOINT rFoot
			{
				OFFSET 0.000000 -19.190928 -1.224953 
				CHANNELS 3 Xrotation Yrotation Zrotation
				End Site
				{
					OFFSET 0.000000 -2.449906 4.627600 
				}
			}
		}
	}
}
MOTION
Frames: 18
Frame Time: 0.016667
-0.847497 49.752552 0.111476 -6.864153 0.175567 -2.832018 -3.968464 -5.945983 -8.758800 10.478353 0.957031 -0.009764 0.552433 -5.273416 -0.167108 -0.064166 2.293736 9.294846 0.623711 -1.260404 -0.058576 -64.121307 -28.317799 10.863143 -106.469894 -4.971935 -28.419811 17.489521 -23.673979 -10.364403 -2.048517 1.662951 -0.078326 60.070065 20.969772 -15.513699 91.688995 16.868370 -33.453278 7.323130 22.904444 -10.712747 -7.690860 9.018506 0.098482 33.611683 -4.732181 -2.934593 -9.741559 0.384673 -4.672141 -2.319412 -2.748438 0.639741 23.993946 4.283100 1.751050 -14.803866 1.794340 -2.807552 
-0.847497 49.752552 0.111476 -6.864153 0.175567 -2.832018 -3.224278 -5.469116 -7.622951 10.117187 0.888672 0.000000 0.594727 -4.677726 -0.107860 -0.459439 1.980476 8.403509 0.623711 -1.260404 -0.058576 -63.732357 -28.953585 9.527699 -104.467125 -6.818648 -27.893463 15.980736 -23.570539 -10.112577 -2.048517 1.662951 -0.078326 60.629684 22.111139 -14.074483 90.146873 15.962922 -33.831772 5.902751 22.742239 -10.900188 -12.751039 9.343578 0.115182 41.679279 -4.611156 -3.847697 -3.541981 -0.919118 -4.037526 -2.709538 -2.885114 0.733453 25.047861 4.335760 1.805425 -15.497819 1.818034 -2.503626 
-0.853325 49.730820 0.251670 -6.725296 0.136562 -2.744133 -2.368727 -4.873499 -6.234025 9.697131 0.791016 -0.009765 0.647891 -3.935546 -0.049383 -0.975745 1.607969 7.298063 0.623711 -1.260404 -0.058576 -63.279648 -29.688896 7.924627 -102.116943 -9.074753 -27.419006 14.201338 -23.447811 -9.841640 -2.048517 1.662951 -0.078326 61.242878 23.447483 -12.347813 88.316017 14.876493 -34.212944 4.167600 22.545277 -11.133718 -16.399977 9.654432 -0.378005 46.828945 -4.848970 -4.378486 2.802037 -1.640695 -3.349767 -3.055412 -2.918821 0.764831 25.818226 4.360761 1.832769 -16.087286 1.750988 -2.458156 
-0.859152 49.709076 0.391856 -6.587010 0.107306 -2.656245 -1.492514 -4.301148 -4.828693 9.267578 0.703125 0.000000 0.702580 -3.193359 0.009750 -1.467782 1.232999 6.192909 0.623711 -1.260404 -0.058576 -62.790119 -30.418839 6.297822 -99.734650 -11.309035 -26.852137 12.414482 -23.305401 -9.570585 -2.048517 1.662951 -0.078326 61.902401 24.769379 -10.587552 86.485497 13.791224 -34.626316 2.430043 22.343472 -11.358208 -20.064533 9.939359 -0.886464 51.961113 -5.044804 -4.949110 9.181499 -2.277361 -2.586051 -3.395357 -2.946639 0.826591 26.588278 4.389729 1.842069 -16.666100 1.699832 -2.393827 
-0.870111 49.660488 0.697709 -6.290753 0.039026 -2.480468 -0.579249 -3.655990 -3.317502 8.818359 0.585938 0.000000 0.758428 -2.412107 0.078056 -2.035177 0.846363 5.010372 0.623711 -1.260404 -0.058576 -62.280876 -31.187223 4.554594 -97.251678 -13.712115 -26.406982 10.535359 -23.170635 -9.304688 -2.048517 1.662951 -0.078326 62.522816 26.161636 -8.748241 84.550949 12.630577 -35.004856 0.574018 22.113665 -11.599335 -22.600647 10.104474 -1.738140 54.657574 -5.494082 -5.267229 14.459550 -2.346189 -2.149248 -3.473911 -2.908006 0.882990 26.937313 4.408681 1.718869 -17.205996 1.640648 -2.301227 
-0.881069 49.611889 1.003557 -6.004288 -0.039031 -2.304694 0.339462 -3.035615 -1.799524 8.359456 0.478516 0.009847 0.816443 -1.621089 0.136664 -2.587272 0.448222 3.818548 0.623711 -1.260404 -0.058576 -61.748081 -31.941738 2.803881 -94.722801 -16.099768 -25.842129 8.644920 -23.018780 -9.037292 -2.048517 1.662951 -0.078326 63.201099 27.534073 -6.875580 82.621445 11.490594 -35.410828 -1.290272 21.889891 -11.841970 -25.138844 10.231547 -2.599117 57.347252 -5.931879 -5.612235 19.723740 -2.365061 -1.690259 -3.561363 -2.858963 0.958887 27.294521 4.443490 1.579964 -17.755932 1.566118 -2.217337 
-0.893755 49.539207 1.447696 -5.581351 -0.126870 -2.070329 1.269438 -2.363262 -0.234578 7.890689 0.371094 0.009829 0.876005 -0.810542 0.205058 -3.161858 0.048778 2.587898 0.623711 -1.260404 -0.058576 -61.236347 -32.736084 1.003072 -92.142990 -18.586321 -25.369381 6.700802 -22.863535 -8.765924 -2.048517 1.662951 -0.078326 63.860008 28.976084 -4.962476 80.616241 10.297044 -35.799778 -3.208266 21.652691 -12.092339 -27.779591 10.477219 -3.322174 59.869694 -6.362082 -6.052315 23.825981 -2.369488 -1.278226 -3.592306 -2.772324 0.959988 27.635729 4.448328 1.453191 -18.461226 1.519261 -2.128237 
-0.906443 49.466511 1.891842 -5.168272 -0.234255 -1.835962 2.225483 -1.718281 1.338460 7.412154 0.263672 0.009810 0.947266 0.000000 0.283203 -3.739260 -0.370990 1.357394 0.623711 -1.260404 -0.058576 -60.679607 -33.507832 -0.812334 -89.496811 -21.050407 -24.764629 4.759344 -22.707922 -8.497108 -2.048517 1.662951 -0.078326 64.575874 30.394732 -3.010332 78.614052 9.117156 -36.224434 -5.128502 21.412598 -12.335383 -30.411753 10.671540 -4.066015 62.366055 -6.762784 -6.533551 27.936636 -2.332393 -0.879442 -3.615430 -2.680114 0.981569 27.976847 4.457976 1.308172 -19.166702 1.462775 -2.022606 
-0.917467 49.372459 2.446928 -4.668530 -0.341673 -1.543000 3.179721 -1.043592 2.891034 6.943386 0.156250 0.009792 1.000988 0.820298 0.341902 -4.298716 -0.771482 0.136706 0.623711 -1.260404 -0.058576 -60.167976 -34.338467 -2.599186 -86.859627 -23.569124 -24.244793 2.765013 -22.548641 -8.185082 -2.048517 1.662951 -0.078326 65.240440 31.883299 -1.106239 76.566780 7.904013 -36.636978 -7.052219 21.168888 -12.594379 -33.119457 10.965213 -4.580182 64.784332 -7.163752 -7.092034 30.700539 -2.262810 -0.375507 -3.587264 -2.583431 0.966231 28.326391 4.486835 1.129678 -20.038177 1.402451 -1.929586 
-0.928490 49.278408 3.002021 -4.169597 -0.458873 -1.259882 4.157607 -0.408918 4.453220 6.464852 0.048828 0.009774 1.056670 1.640583 0.410547 -4.860085 -1.200957 -1.084360 0.623711 -1.260404 -0.058576 -59.620659 -35.142296 -4.409584 -84.143295 -26.055201 -23.572638 0.786702 -22.374187 -7.889463 -2.048517 1.662951 -0.078326 65.978798 33.357018 0.853994 74.513565 6.700133 -37.092300 -8.965754 20.914614 -12.837642 -35.834412 11.238687 -5.094717 67.238411 -7.516463 -7.638780 33.419369 -2.201509 0.125236 -3.569620 -2.487101 0.950371 28.665693 4.515837 0.960388 -20.929153 1.334178 -1.841512 
-0.934451 49.165737 3.640705 -3.633052 -0.576093 -0.947316 5.131667 0.233118 5.937570 5.996077 -0.048828 0.019531 1.114070 2.431556 0.479328 -5.375462 -1.610057 -2.276413 0.623711 -1.260404 -0.058576 -59.151188 -35.991028 -6.129894 -81.488503 -28.522837 -22.930462 -1.209623 -22.213991 -7.538457 -2.048517 1.662951 -0.078326 66.659920 34.876476 2.707990 72.459335 5.488695 -37.546516 -10.839990 20.682848 -13.092981 -38.362206 11.599959 -5.372029 69.083931 -7.848409 -8.137313 34.778831 -2.105136 0.697327 -3.410026 -2.367723 0.913391 28.936520 4.534864 0.802769 -21.878372 1.276127 -1.747520 
-0.940412 49.053059 4.279396 -3.087562 -0.712844 -0.654368 6.126642 0.852174 7.422792 5.527290 -0.156250 0.019531 1.163697 3.232274 0.548207 -5.893435 -2.027573 -3.449597 0.623711 -1.260404 -0.058576 -58.648731 -36.832672 -7.881098 -78.737862 -30.967569 -22.142460 -3.189384 -22.034973 -7.204149 -2.048517 1.662951 -0.078326 67.420959 36.391754 4.636104 70.401283 4.298474 -38.050285 -12.704347 20.440210 -13.328957 -40.900982 11.951565 -5.655195 70.942810 -8.180479 -8.620120 36.126160 -2.040449 1.307223 -3.276266 -2.262281 0.874662 29.217360 4.555506 0.635923 -22.846943 1.222536 -1.639762 
-0.937914 48.924526 4.974325 -2.533969 -0.830063 -0.351667 7.116419 1.438064 8.772385 5.068280 -0.234375 0.019531 1.214727 3.984145 0.617140 -6.350748 -2.424035 -4.535448 0.623711 -1.260404 -0.058576 -58.230709 -37.718319 -9.463470 -76.097839 -33.313618 -21.357262 -5.166845 -21.877628 -6.804995 -2.048517 1.662951 -0.078326 68.131210 37.951511 6.392667 68.371773 3.104580 -38.575626 -14.455608 20.230904 -13.576111 -43.009872 12.332164 -5.679461 72.073662 -8.473872 -9.015769 35.674129 -1.965563 1.882414 -3.058888 -2.153137 0.811572 29.418642 4.579361 0.464380 -23.814760 1.207223 -1.518932 
-0.935414 48.795982 5.669258 -1.991034 -0.966796 -0.068514 8.122348 2.009266 10.123569 4.609265 -0.322266 0.019531 1.266765 4.736000 0.676365 -6.791066 -2.837868 -5.622346 0.623711 -1.260404 -0.058576 -57.793262 -38.588520 -11.062207 -73.348808 -35.627747 -20.415819 -7.141345 -21.697191 -6.413260 -2.048517 1.662951 -0.078326 68.921059 39.494492 8.218971 66.337532 1.943112 -39.142288 -16.198322 19.997948 -13.810612 -45.120815 12.713426 -5.720922 73.206093 -8.767137 -9.412751 35.213467 -1.873900 2.478956 -2.827118 -2.057067 0.709765 29.629873 4.593190 0.330182 -24.792463 1.177319 -1.418384 
-0.921061 48.654324 6.393082 -1.458959 -1.083977 0.205041 9.105330 2.518892 11.271063 4.169789 -0.390625 0.019531 1.300884 5.419466 0.746248 -7.129069 -3.220922 -6.572938 0.623711 -1.260404 -0.058576 -57.466686 -39.505581 -12.455103 -70.772514 -37.791466 -19.437998 -9.048795 -21.535181 -5.948164 -2.048517 1.662951 -0.078326 69.634300 41.079948 9.811253 64.365074 0.797566 -39.739750 -17.777674 19.806282 -14.037204 -46.568493 13.212106 -5.492889 73.341675 -9.030354 -9.642589 32.653767 -2.072872 3.007235 -2.487573 -1.999858 0.593102 29.770288 4.603659 0.246960 -25.779554 1.167374 -1.304305 
-0.906706 48.512661 7.116908 -0.927671 -1.210899 0.458882 10.107268 3.013742 12.429583 3.740075 -0.468750 0.019531 1.335626 6.102918 0.805587 -7.463372 -3.611374 -7.515162 0.623711 -1.260404 -0.058576 -57.117493 -40.414619 -13.859149 -68.070053 -39.927162 -18.300608 -10.970941 -21.364033 -5.474578 -2.048517 1.662951 -0.078326 70.437202 42.646740 11.475668 62.377453 -0.318470 -40.381393 -19.343485 19.610672 -14.254950 -48.015419 13.729985 -5.288383 73.477768 -9.293954 -9.854476 30.104103 -2.323562 3.540437 -2.134333 -1.929750 0.478196 29.919262 4.623536 0.166926 -26.776619 1.139416 -1.201688 
-0.877099 48.360619 7.842281 -0.464388 -1.308506 0.664112 11.101580 3.421483 13.305517 3.329905 -0.507813 0.019530 1.350789 6.688697 0.866037 -7.674283 -3.971951 -8.282322 0.623711 -1.260404 -0.058576 -56.928349 -41.363686 -14.964159 -65.586960 -41.841003 -17.096863 -12.812988 -21.216274 -4.921195 -2.048517 1.662951 -0.078326 71.172775 44.260490 12.861646 60.482433 -1.392349 -41.080029 -20.682674 19.463703 -14.461199 -48.467697 14.011710 -4.786956 72.139656 -9.518202 -9.772758 25.274969 -2.752780 3.718185 -1.420475 -1.887506 0.323524 29.369673 4.608471 0.059396 -27.440260 1.183042 -1.040470 
-0.847489 48.208588 8.567645 -0.001858 -1.425621 0.859595 12.097004 3.815788 14.192450 2.929498 -0.556641 0.019530 1.368435 7.274432 0.936341 -7.876180 -4.330514 -9.040079 0.623711 -1.260404 -0.058576 -56.704941 -42.301182 -16.098623 -62.971203 -43.712967 -15.731302 -14.648268 -21.050171 -4.370880 -2.048517 1.662951 -0.078326 71.986237 45.861908 14.312115 58.572281 -2.435290 -41.816921 -22.011105 19.320269 -14.665359 -48.928577 14.295174 -4.268734 70.790222 -9.723167 -9.670736 20.467943 -3.204920 3.882176 -0.692520 -1.844212 0.130666 28.831612 4.574095 -0.022527 -28.074331 1.225064 -0.890757 
